<svg width="37" height="42" viewBox="0 0 37 42" fill="none" xmlns="http://www.w3.org/2000/svg">
<g filter="url(#filter0_d_55_47)">
<path d="M21 13.6667V11.1667C21 9.78595 19.8807 8.66667 18.5 8.66667C17.1193 8.66667 16 9.78595 16 11.1667V15.3333M21 15.3333V12.8333C21 11.4526 22.1193 10.3333 23.5 10.3333C24.8807 10.3333 26 11.4526 26 12.8333V13.6667M11 16.1667V4.5C11 3.11928 12.1193 2 13.5 2C14.8807 2 16 3.11928 16 4.5V15.3333M16 17V15.3333ZM11 20.3333V16.1667C11 14.786 9.88072 13.6667 8.5 13.6667C7.11928 13.6667 6 14.786 6 16.1667V19.5C6 23.6667 8.5 32 18.5 32C22.6667 32 31 29.5 31 19.5V17C31 15.159 29.5077 13.6667 27.6667 13.6667H26M26 13.6667V17Z" fill="white"/>
<path d="M21 12.8333V11.1667C21 9.78595 19.8807 8.66667 18.5 8.66667C17.1193 8.66667 16 9.78595 16 11.1667V4.5C16 3.11928 14.8807 2 13.5 2C12.1193 2 11 3.11928 11 4.5V16.1667C11 14.786 9.88072 13.6667 8.5 13.6667C7.11928 13.6667 6 14.786 6 16.1667V19.5C6 23.6667 8.5 32 18.5 32C22.6667 32 31 29.5 31 19.5V17C31 15.159 29.5077 13.6667 27.6667 13.6667H26V12.8333C26 11.4526 24.8807 10.3333 23.5 10.3333C22.1193 10.3333 21 11.4526 21 12.8333Z" fill="white"/>
<path d="M21 13.6667V11.1667M21 11.1667C21 9.78595 19.8807 8.66667 18.5 8.66667C17.1193 8.66667 16 9.78595 16 11.1667M21 11.1667V12.8333M16 11.1667V15.3333M16 11.1667V4.5M16 15.3333V4.5M16 15.3333V17M21 15.3333V12.8333M21 12.8333C21 11.4526 22.1193 10.3333 23.5 10.3333C24.8807 10.3333 26 11.4526 26 12.8333V13.6667M26 13.6667H27.6667C29.5077 13.6667 31 15.159 31 17V19.5C31 29.5 22.6667 32 18.5 32C8.5 32 6 23.6667 6 19.5V16.1667C6 14.786 7.11928 13.6667 8.5 13.6667C9.88072 13.6667 11 14.786 11 16.1667M26 13.6667V17M11 16.1667V4.5C11 3.11928 12.1193 2 13.5 2C14.8807 2 16 3.11928 16 4.5M11 16.1667V20.3333" stroke="black" stroke-width="2.83333" stroke-linecap="round"/>
</g>
<defs>
<filter id="filter0_d_55_47" x="0.583344" y="0.583313" width="35.8333" height="40.8334" filterUnits="userSpaceOnUse" color-interpolation-filters="sRGB">
<feFlood flood-opacity="0" result="BackgroundImageFix"/>
<feColorMatrix in="SourceAlpha" type="matrix" values="0 0 0 0 0 0 0 0 0 0 0 0 0 0 0 0 0 0 127 0" result="hardAlpha"/>
<feOffset dy="4"/>
<feGaussianBlur stdDeviation="2"/>
<feComposite in2="hardAlpha" operator="out"/>
<feColorMatrix type="matrix" values="0 0 0 0 0 0 0 0 0 0 0 0 0 0 0 0 0 0 0.25 0"/>
<feBlend mode="normal" in2="BackgroundImageFix" result="effect1_dropShadow_55_47"/>
<feBlend mode="normal" in="SourceGraphic" in2="effect1_dropShadow_55_47" result="shape"/>
</filter>
</defs>
</svg>
